<svg width="19" height="19" viewBox="0 0 19 19" fill="none" xmlns="http://www.w3.org/2000/svg">
<path d="M1.33333 5.06675C1.33333 6.53341 1.79999 7.66675 2.79999 8.26675C3.59999 8.80008 4.53333 8.86675 4.99999 8.86675C5.13333 8.86675 5.2 8.86675 5.26666 8.86675C5.26666 8.86675 5.13333 9.86675 5.86666 10.8667H5.8C4.53333 10.8667 0.333328 11.1334 0.333328 14.6001C0.333328 18.1334 4.19999 18.2667 4.99999 18.2667C5.06666 18.2667 5.06666 18.2667 5.06666 18.2667C5.06666 18.2667 5.13333 18.2667 5.2 18.2667C5.66666 18.2667 7 18.2001 8.2 17.6001C9.73333 16.8667 10.5333 15.5334 10.5333 13.7334C10.5333 12.0001 9.33333 10.9334 8.46666 10.1334C7.93333 9.66675 7.46666 9.26675 7.46666 8.86675C7.46666 8.46675 7.8 8.13341 8.2 7.80008C8.86666 7.20008 9.53333 6.33341 9.53333 4.66675C9.53333 3.20008 9.33333 2.20008 8.2 1.60008C8.39999 1.53341 8.86666 1.46675 9.06666 1.46675C9.66666 1.40008 10.6 1.26675 10.6 0.800081V0.666748H6C5.93333 0.666748 1.33333 0.866748 1.33333 5.06675ZM8.8 14.0667C8.86666 15.4667 7.66666 16.5334 5.86666 16.6667C4 16.8001 2.53333 16.0001 2.46666 14.6001C2.39999 13.9334 2.73333 13.2667 3.33333 12.7334C3.93333 12.2001 4.73333 11.8667 5.6 11.8001C5.73333 11.8001 5.8 11.8001 5.93333 11.8001C7.53333 11.7334 8.66666 12.7334 8.8 14.0667ZM7.6 4.06675C8.06666 5.66675 7.4 7.33341 6.26666 7.60008C6.13333 7.66675 6 7.66675 5.86666 7.66675C4.86666 7.66675 3.86666 6.66675 3.53333 5.26675C3.33333 4.53341 3.33333 3.86675 3.6 3.20008C3.8 2.53341 4.26666 2.13341 4.73333 2.00008C4.86666 1.93341 5 1.93341 5.13333 1.93341C6.33333 1.93341 7.06666 2.40008 7.6 4.06675ZM15.3333 7.46675V4.46675H13.3333V7.46675H10.3333V9.46675H13.3333V12.4667H15.3333V9.46675H18.3333V7.46675H15.3333Z" fill="black"/>
</svg>
