<svg width="16" height="20" viewBox="0 0 16 20" fill="none" xmlns="http://www.w3.org/2000/svg">
<path d="M15.3333 6.13337C14.8 2.40004 11.0667 0.533373 7.13334 1.00004C4 1.33337 0.866669 3.86671 0.733336 7.46671C0.666669 9.66671 1.26667 11.3334 3.4 11.8C4.33334 10.2 3.13334 9.86671 2.93334 8.66671C2.13334 3.86671 8.46667 0.666706 11.7333 4.00004C14 6.33337 12.5333 13.4 8.86667 12.6667C5.33334 11.9334 10.6 6.33337 7.8 5.20004C5.53334 4.26671 4.33334 7.93337 5.4 9.80004C4.73334 12.9334 3.4 15.8667 3.93334 19.8C5.73334 18.4667 6.33334 16 6.8 13.4C7.66667 13.9334 8.2 14.5334 9.33334 14.6C13.5333 14.9334 15.8667 10.3334 15.3333 6.13337Z" fill="black"/>
</svg>
