<svg width="19" height="13" viewBox="0 0 19 13" fill="none" xmlns="http://www.w3.org/2000/svg">
<path d="M13.6667 3.93341C13.6667 3.93341 12.2 8.60007 12.0667 8.93341C12 8.53341 10.9333 0.200073 10.9333 0.200073C8.4 0.200073 7.06666 2.00007 6.33333 3.86674C6.33333 3.86674 4.53333 8.53341 4.4 8.93341C4.4 8.60007 4.13333 3.93341 4.13333 3.93341C4 1.60007 1.86666 0.200073 0.133331 0.200073L2.2 12.8001C4.86666 12.8001 6.26666 11.0001 7 9.13341C7 9.13341 8.6 5.00007 8.66666 4.86674C8.66666 5.06674 9.8 12.8667 9.8 12.8667C12.4667 12.8667 13.8667 11.2001 14.6667 9.33341L18.4 0.200073C15.8 0.200073 14.4 2.00007 13.6667 3.93341Z" fill="black"/>
</svg>
